<svg width="24" height="24" viewBox="0 0 24 24" fill="none" xmlns="http://www.w3.org/2000/svg">
<path d="M5.67692 13.85L11.3538 8.15577C11.4231 8.09808 11.4895 8.05769 11.5532 8.03462C11.6165 8.01154 11.6827 8 11.7519 8C11.8212 8 11.8876 8.01154 11.9513 8.03462C12.0145 8.05769 12.0808 8.09808 12.15 8.15577L17.8442 13.8673C17.9481 13.9596 18 14.075 18 14.2135C18 14.3519 17.9423 14.4731 17.8269 14.5769C17.7231 14.6808 17.5992 14.7327 17.4552 14.7327C17.3107 14.7327 17.1923 14.6808 17.1 14.5769L11.7519 9.24615L6.40385 14.5942C6.3 14.6981 6.18185 14.75 6.04939 14.75C5.91646 14.75 5.79231 14.6923 5.67692 14.5769C5.57308 14.4731 5.52115 14.3519 5.52115 14.2135C5.52115 14.075 5.57308 13.9538 5.67692 13.85Z" fill="#1F3D66"/>
</svg>
